<svg width="60" height="60" viewBox="0 0 60 60" fill="none" xmlns="http://www.w3.org/2000/svg">
<g clip-path="url(#clip0_16293_62194)">
<path d="M25.5072 55.17H2.87819V53.96H25.4972C25.7177 53.96 25.8981 54.14 25.8981 54.36V54.76C25.9081 54.99 25.7277 55.17 25.5072 55.17ZM2.87819 48.58H7.06726C7.1775 48.58 7.2677 48.49 7.2677 48.38V42.82C7.2677 42.71 7.1775 42.62 7.06726 42.62H2.87819V41.33H9.41234L11.9779 39.23L8.75091 36.59C8.61061 36.48 8.59056 36.27 8.71082 36.13L8.92128 35.88C9.03152 35.74 9.24197 35.72 9.38228 35.84L13.0502 38.85C13.2907 39.05 13.2907 39.43 13.0502 39.63L10.9657 41.34H20.9173C21.709 41.34 22.4606 41.67 22.9918 42.25C24.5652 43.96 25.5573 46.08 25.878 48.37C25.9782 49.1 25.868 49.82 25.5573 50.45C24.8358 51.91 23.3726 52.82 21.7491 52.82H2.87819V48.58ZM22.0197 43.1C21.739 42.79 21.3282 42.62 20.9173 42.62H17.4097C17.2994 42.62 17.2092 42.71 17.2092 42.82V48.38C17.2092 48.49 17.2994 48.58 17.4097 48.58H23.4127C24.1142 48.58 24.5351 48.03 24.3547 47.35C23.9338 45.77 23.1421 44.32 22.0197 43.1ZM15.706 51.52C15.8162 51.52 15.9064 51.43 15.9064 51.32V42.82C15.9064 42.71 15.8162 42.62 15.706 42.62H13.0903C12.9801 42.62 12.8899 42.71 12.8899 42.82V51.32C12.8899 51.43 12.9801 51.52 13.0903 51.52H15.706ZM8.77095 42.62C8.66071 42.62 8.57052 42.71 8.57052 42.82V51.32C8.57052 51.43 8.66071 51.52 8.77095 51.52H11.3866C11.4969 51.52 11.5871 51.43 11.5871 51.32V42.82C11.5871 42.71 11.4969 42.62 11.3866 42.62H8.77095ZM28.7843 32.2C28.7843 31.68 28.3634 31.27 27.8523 31.27H0.933973C0.412843 31.27 0.00195312 31.69 0.00195312 32.2C0.00195312 32.72 0.422865 33.13 0.933973 33.13H27.8423C28.3634 33.14 28.7843 32.72 28.7843 32.2ZM28.7843 59.07C28.7843 58.55 28.3634 58.14 27.8523 58.14H0.933973C0.412843 58.14 0.00195312 58.56 0.00195312 59.07C0.00195312 59.59 0.422865 60 0.933973 60H27.8423C28.3634 60 28.7843 59.58 28.7843 59.07Z" fill="#25303B"/>
<path d="M52.7664 20.81V8.26C52.7664 7.54 52.3656 6.79 51.183 6.79C50.2811 6.79 49.9203 7.19 49.5294 7.98L45.641 16.07H45.6009L41.6724 7.98C41.2715 7.19 40.9208 6.79 40.0188 6.79C38.8262 6.79 38.4354 7.54 38.4354 8.26V20.8C38.4354 21.48 38.9766 21.88 39.628 21.88C40.1992 21.88 40.8506 21.48 40.8506 20.8V11.46H40.8907L44.4584 18.72C44.709 19.22 45.0297 19.51 45.6109 19.51C46.1822 19.51 46.5129 19.22 46.7634 18.72L50.3312 11.46H50.3712V20.8C50.3712 21.48 51.0227 21.88 51.5939 21.88C52.2253 21.88 52.7664 21.49 52.7664 20.81ZM45.6009 0C37.6437 0 31.1997 6.44 31.1997 14.37C31.1997 22.31 37.6437 28.74 45.6009 28.74C53.5582 28.74 60.0021 22.3 60.0021 14.37C60.0021 6.44 53.5582 0 45.6009 0ZM45.6009 26.88C38.6859 26.88 33.0738 21.28 33.0738 14.37C33.0738 7.46 38.6859 1.87 45.6009 1.87C52.5159 1.87 58.1281 7.47 58.1281 14.38C58.1281 21.29 52.5259 26.88 45.6009 26.88Z" fill="#25303B"/>
<path d="M56.0135 47.61C56.0135 46.14 55.1817 45.28 54.1394 44.7L53.3477 44.27C52.8767 44.02 52.4858 43.62 52.4858 43.12C52.4858 42.55 52.9568 42.15 53.6383 42.15C54.1093 42.15 54.5403 42.33 54.861 42.47C55.3621 42.72 55.6928 42.4 55.8331 41.86C56.0135 41.25 55.7629 41.03 55.332 40.82C54.9011 40.6 54.2897 40.46 53.6784 40.46C51.9847 40.46 50.5817 41.57 50.5817 43.37C50.5817 44.77 51.3033 45.56 52.4558 46.21L53.2876 46.68C53.7887 46.97 54.1194 47.36 54.1194 47.9C54.1194 48.58 53.468 48.91 52.8266 48.91C52.3255 48.91 51.7142 48.69 51.3834 48.55C50.8423 48.3 50.5516 48.62 50.3712 49.2C50.1909 49.81 50.4815 50.06 50.9425 50.28C51.3734 50.5 52.125 50.68 52.8165 50.68C54.5703 50.66 56.0135 49.48 56.0135 47.61ZM49.7098 47.25V41.29C49.7098 40.79 49.2087 40.54 48.7377 40.54C48.2366 40.54 47.7656 40.79 47.7656 41.29V47C47.7656 48.15 47.4048 48.9 46.4728 48.9C45.5708 48.9 45.1399 48.18 45.1399 47V41.29C45.1399 40.79 44.5987 40.54 44.1277 40.54C43.5865 40.54 43.1155 40.79 43.1155 41.29V47.22C43.1155 49.59 44.2981 50.67 46.4628 50.67C48.417 50.66 49.7098 49.55 49.7098 47.25ZM42.1935 47.68C42.1935 46.03 41.041 45.42 40.4297 45.31V45.27C41.1513 44.91 42.0131 44.23 42.0131 43.01C42.0131 41.36 40.57 40.57 39.167 40.57H36.4711C35.97 40.57 35.6794 40.97 35.6794 41.4V49.8C35.6794 50.3 36.1805 50.55 36.6515 50.55H39.207C40.7504 50.55 42.1935 49.73 42.1935 47.68ZM39.9988 43.48C39.9988 44.41 39.207 44.74 38.3752 44.74H37.6236V42.23H38.3752C39.2471 42.22 39.9988 42.51 39.9988 43.48ZM40.2894 47.47C40.2894 48.44 39.7482 48.91 38.5957 48.91H37.7338V46.11H38.5957C39.3173 46.1 40.2894 46.35 40.2894 47.47ZM59.0701 33.14H32.1517C31.6306 33.14 31.2197 32.72 31.2197 32.21C31.2197 31.69 31.6406 31.28 32.1517 31.28H59.0601C59.5812 31.28 59.9921 31.7 59.9921 32.21C60.0021 32.72 59.5812 33.14 59.0701 33.14ZM59.0701 60H32.1517C31.6306 60 31.2197 59.58 31.2197 59.07C31.2197 58.55 31.6406 58.14 32.1517 58.14H59.0601C59.5812 58.14 59.9921 58.56 59.9921 59.07C60.0021 59.58 59.5812 60 59.0701 60Z" fill="#25303B"/>
<path d="M10.9054 12.34C10.9355 12.32 10.9655 12.3 10.9856 12.28C11.2361 12.08 11.4766 11.76 11.647 11.28C11.8875 10.6 12.0579 10 12.098 9.25C12.1581 8.33 11.7873 6.91 11.5368 6.24L11.4466 6.01C11.3964 5.86 11.186 5.54 10.8252 5.16C10.5145 4.83 10.2039 4.81 9.75289 4.81H7.87883C7.41783 4.81 7.11718 4.83 6.8065 5.16C6.4357 5.54 6.23527 5.86 6.18516 6.01L6.09496 6.25C5.84442 6.91 5.46359 8.34 5.53375 9.26C5.58385 10 5.75422 10.61 5.98472 11.29C6.15509 11.77 6.38559 12.08 6.64616 12.29C6.67622 12.31 6.69626 12.33 6.72633 12.35L5.36338 13.86C5.31327 13.92 5.2832 14 5.2832 14.08C5.2832 14.16 5.31327 14.24 5.36338 14.3C5.38342 14.33 5.42351 14.35 5.45357 14.37C5.48364 14.39 5.52372 14.39 5.56381 14.39C5.6039 14.39 5.64398 14.38 5.67405 14.37C5.70411 14.35 5.73418 14.33 5.76425 14.3L6.23527 13.78H11.4065L11.8775 14.3C11.8975 14.33 11.9376 14.35 11.9677 14.37C11.9978 14.39 12.0378 14.39 12.0779 14.39C12.118 14.39 12.1581 14.38 12.1882 14.37C12.2182 14.35 12.2483 14.33 12.2784 14.3C12.3285 14.24 12.3585 14.16 12.3585 14.08C12.3585 14 12.3285 13.92 12.2784 13.86L10.9054 12.34ZM10.4544 11.79C10.3642 11.79 10.274 11.76 10.1938 11.71C10.1137 11.66 10.0535 11.59 10.0235 11.5C9.98339 11.41 9.98339 11.32 9.99341 11.23C10.0135 11.14 10.0535 11.06 10.1237 10.99C10.1938 10.92 10.274 10.88 10.3642 10.86C10.4544 10.84 10.5446 10.85 10.6348 10.89C10.725 10.93 10.7951 10.98 10.8453 11.06C10.8954 11.14 10.9254 11.23 10.9254 11.32C10.9254 11.44 10.8753 11.56 10.7851 11.65C10.6949 11.74 10.5747 11.79 10.4544 11.79ZM6.22524 8.81C5.94464 8.81 6.38559 6.31 6.59605 6.31H10.9856C11.206 6.31 11.7272 8.81 11.3764 8.81H6.22524ZM6.69627 11.33C6.69627 11.24 6.72633 11.15 6.77644 11.07C6.82655 10.99 6.8967 10.93 6.98689 10.9C7.07709 10.86 7.16729 10.86 7.25748 10.87C7.34768 10.89 7.42785 10.93 7.498 11C7.56815 11.07 7.60824 11.15 7.62828 11.24C7.64833 11.33 7.63831 11.42 7.59822 11.51C7.55813 11.6 7.498 11.67 7.42785 11.72C7.34768 11.77 7.25748 11.8 7.16729 11.8C7.10716 11.8 7.04702 11.79 6.98689 11.76C6.92676 11.74 6.87666 11.7 6.83657 11.66C6.79648 11.62 6.75639 11.57 6.73635 11.51C6.71631 11.45 6.69627 11.39 6.69627 11.33ZM6.79648 13.15L7.29757 12.6C7.50802 12.64 7.71848 12.66 7.92894 12.66H9.70278C9.91324 12.67 10.1237 12.65 10.3341 12.6L10.8352 13.15H6.79648Z" fill="#25303B"/>
<path d="M24.4648 18.75C24.4648 17.73 23.6831 17.26 22.9115 17.26H21.4483C21.1677 17.26 21.0174 17.47 21.0174 17.69V22.12C21.0174 22.39 21.298 22.52 21.5485 22.52C21.8391 22.52 22.0797 22.39 22.0797 22.12V20.41H22.5306L23.4125 22.31C23.4426 22.38 23.5027 22.43 23.5629 22.47C23.633 22.51 23.7032 22.52 23.7834 22.52C24.094 22.52 24.545 22.24 24.3746 21.9L23.5328 20.2C24.0339 19.96 24.4648 19.53 24.4648 18.75ZM20.4862 22.03C20.4862 21.8 20.3259 21.56 20.0553 21.56H18.562V20.26H19.7947C19.8548 20.26 19.915 20.25 19.9651 20.22C20.0152 20.2 20.0653 20.17 20.1054 20.13C20.1455 20.09 20.1755 20.04 20.1956 19.99C20.2156 19.94 20.2256 19.88 20.2256 19.83C20.2256 19.6 20.0653 19.4 19.7947 19.4H18.562V18.2H19.945C20.2256 18.2 20.376 17.93 20.376 17.73C20.376 17.5 20.2156 17.26 19.945 17.26H17.9407C17.6601 17.26 17.5098 17.47 17.5098 17.69V22.1C17.5098 22.37 17.7904 22.5 18.0409 22.5H20.0553C20.3359 22.5 20.4862 22.24 20.4862 22.03ZM16.8784 18.75C16.8784 17.73 16.0967 17.26 15.325 17.26H13.8518C13.5812 17.26 13.4209 17.47 13.4209 17.69V22.12C13.4209 22.39 13.7015 22.52 13.952 22.52C14.2427 22.52 14.4832 22.39 14.4832 22.12V20.41H14.9342L15.8161 22.31C15.8462 22.38 15.9063 22.43 15.9664 22.47C16.0366 22.51 16.1067 22.52 16.1869 22.52C16.4976 22.52 16.9485 22.24 16.7782 21.9L15.9363 20.2C16.4475 19.96 16.8784 19.52 16.8784 18.75ZM23.3725 18.86C23.3725 19.5 22.7611 19.65 22.3903 19.65H22.0797V18.12H22.4505C22.9415 18.13 23.3725 18.34 23.3725 18.86ZM15.786 18.86C15.786 19.5 15.1747 19.65 14.8039 19.65H14.4932V18.12H14.864C15.3551 18.13 15.786 18.34 15.786 18.86Z" fill="#25303B"/>
<path fill-rule="evenodd" clip-rule="evenodd" d="M21.9298 6.87004C22.1202 7.06004 22.1202 7.36004 21.9298 7.55004L7.53864 21.91C7.34823 22.1 7.04758 22.1 6.85716 21.91C6.66675 21.72 6.66675 21.42 6.85716 21.23L21.2483 6.87004C21.4388 6.68004 21.7394 6.68004 21.9298 6.87004Z" fill="#25303B"/>
<path d="M22.3103 28.75H6.47598C2.89823 28.75 0.00195312 25.85 0.00195312 22.29V6.49003C0.00195312 2.92003 2.89823 0.0300293 6.47598 0.0300293H22.3103C25.888 0.0300293 28.7843 2.92003 28.7843 6.49003V22.29C28.7843 25.85 25.888 28.75 22.3103 28.75ZM26.9103 22.29V6.49003C26.9103 3.95003 24.8458 1.89003 22.3003 1.89003H6.46596C3.92044 1.89003 1.85597 3.95003 1.85597 6.49003V22.29C1.85597 24.83 3.92044 26.89 6.46596 26.89H22.3003C24.8558 26.88 26.9103 24.82 26.9103 22.29Z" fill="#25303B"/>
</g>
<defs>
<clipPath id="clip0_16293_62194">
<rect width="60" height="60" fill="white" transform="translate(0.00195312)"/>
</clipPath>
</defs>
</svg>
